<svg xmlns="http://www.w3.org/2000/svg" xmlns:xlink="http://www.w3.org/1999/xlink" version="1.1" x="0px" y="0px" style="enable-background:new 0 0 600 600;" xml:space="preserve" viewBox="72.5 113.62 484.67 403.02">
<style type="text/css">
	.st0{opacity:0.18;}
	.st1{fill:#009FE3;}
	.st2{opacity:0.47;}
	.st3{fill:url(#SVGID_1_);}
	.st4{fill:#CBD6D8;}
	.st5{fill:url(#SVGID_00000054255729018186781440000010090019989124853645_);}
	.st6{fill:url(#SVGID_00000041283578922769100230000017340668551881291176_);}
	.st7{fill:url(#SVGID_00000109715387031290599630000001036728136472369584_);}
	.st8{fill:url(#SVGID_00000106123372381169539330000014806147871295314610_);}
	.st9{fill:#3C3C3B;}
	.st10{fill:url(#SVGID_00000002349489102338229320000001410691707082477739_);}
	.st11{fill:#A6B4BC;}
	.st12{opacity:0.47;fill:#A6B4BC;}
	.st13{fill:#FFFFFF;}
	.st14{fill:#1D1D1B;}
	.st15{fill:none;stroke:#1D1D1B;stroke-width:5;stroke-miterlimit:10;}
	.st16{fill:url(#SVGID_00000169519086292881358440000002229071570401419400_);}
	.st17{fill:#A7B0B1;}
	.st18{fill:none;}
	.st19{fill:none;stroke:#1D1D1B;stroke-width:0.75;stroke-miterlimit:10;}
	.st20{fill:#CE645F;}
	.st21{fill:#843931;}
	.st22{fill:#FFFBD7;}
	.st23{fill:#D1B293;}
	.st24{fill:#211F1B;}
	.st25{opacity:0.34;fill:#A7B0B1;}
	.st26{opacity:0.12;fill:#9CA0A0;}
	.st27{fill:url(#SVGID_00000069392761897615300140000008511263310091087029_);}
	.st28{opacity:0.95;}
	.st29{fill:#202F33;}
	.st30{fill:#BEF9FC;stroke:#395660;stroke-width:0.75;stroke-miterlimit:10;}
</style>
<g id="Camada_2">
	<g class="st0">
		<path class="st1" d="M538.43,235.01c4.7,0.28,9.39,0.59,14.09,0.83c2.17,0.11,3.23,1.1,3.36,3.31c0.36,6.37,0.75,12.75,1.27,19.11    c0.22,2.72-0.9,3.81-3.5,4.21c-4.42,0.68-8.79,1.71-13.21,2.48c-1.52,0.26-2.35,0.84-2.65,2.45c-0.96,5.2-2.67,10.18-5.06,14.9    c-0.91,1.8-0.58,3.02,0.76,4.44c2.92,3.09,5.62,6.4,8.52,9.51c1.82,1.95,2.21,3.53,0.17,5.73c-4.26,4.6-8.29,9.4-12.32,14.2    c-1.58,1.88-3.06,1.82-4.93,0.51c-3.67-2.56-7.47-4.94-11.08-7.58c-1.6-1.17-2.78-1.31-4.47-0.17c-4.38,2.93-9.02,5.46-14.11,6.95    c-1.65,0.48-1.97,1.42-2.04,2.93c-0.19,4.59-0.59,9.17-0.76,13.76c-0.09,2.47-1.1,3.63-3.65,3.76    c-6.26,0.32-12.52,0.76-18.77,1.27c-2.49,0.2-3.74-0.77-4.2-3.2c-0.84-4.51-1.88-8.99-2.71-13.51c-0.3-1.64-0.92-2.47-2.66-2.8    c-5.08-0.98-9.99-2.57-14.59-4.95c-1.67-0.87-2.84-0.68-4.18,0.57c-3.19,2.99-6.56,5.78-9.7,8.83c-2.19,2.13-3.94,1.83-6.04-0.11    c-4.36-4.03-8.8-7.99-13.35-11.79c-2.14-1.78-2.59-3.33-0.85-5.65c2.55-3.4,4.81-7.02,7.35-10.43c1.25-1.67,1.41-3.02,0.17-4.76    c-3.01-4.22-5.11-8.94-6.78-13.82c-0.62-1.8-1.61-2.38-3.41-2.44c-4.48-0.15-8.95-0.54-13.42-0.7c-2.53-0.09-3.59-1.34-3.74-3.75    c-0.37-6.15-0.74-12.3-1.26-18.43c-0.24-2.85,0.95-4.05,3.67-4.49c4.42-0.7,8.8-1.7,13.2-2.49c1.33-0.24,2.22-0.6,2.5-2.16    c0.96-5.44,2.77-10.62,5.25-15.54c0.72-1.44,0.48-2.4-0.59-3.55c-3.2-3.45-6.25-7.04-9.42-10.52c-1.32-1.45-1.68-2.82-0.27-4.42    c4.36-4.97,8.72-9.93,13.01-14.96c1.67-1.95,3.21-1.89,5.19-0.43c3.61,2.65,7.39,5.06,10.99,7.73c1.55,1.15,2.72,1.02,4.21-0.02    c4.25-2.96,8.83-5.32,13.79-6.84c1.81-0.56,2.4-1.48,2.45-3.35c0.11-4.48,0.58-8.95,0.68-13.43c0.06-2.74,1.31-3.77,3.89-3.91    c6.15-0.32,12.3-0.66,18.44-1.19c2.64-0.23,3.96,0.62,4.39,3.28c0.73,4.53,1.72,9.02,2.48,13.55c0.26,1.55,0.88,2.31,2.5,2.58    c5.23,0.87,10.18,2.71,14.93,4.99c1.87,0.89,3.06,0.58,4.46-0.72c3.28-3.06,6.71-5.95,9.97-9.03c1.6-1.51,3.07-1.65,4.69-0.22    c4.95,4.38,9.89,8.77,14.83,13.16c1.62,1.44,1.68,2.92,0.37,4.71c-2.32,3.15-4.33,6.54-6.76,9.6c-1.94,2.44-2.18,4.43-0.28,7.07    c2.69,3.73,4.48,8,6.13,12.3c0.24,0.63,0.43,1.27,0.73,2.13C536.64,235.07,537.56,234.96,538.43,235.01z M501.32,283.95    c16.42-15.36,17.22-40.6,1.8-57.31c-14.73-15.95-40.44-16.8-56.55-1.85c-16.24,15.06-17.29,40.64-2.34,56.81    C459.34,297.96,485.2,299.02,501.32,283.95z"/>
		<path class="st1" d="M304.62,412.6c-0.21-3.46-0.37-6.93-0.58-10.39c-0.32-5.17-0.24-5.29,5.01-6.17    c1.44-0.24,2.88-0.69,4.31-0.65c3.67,0.09,5.41-1.69,5.85-5.22c0.44-3.58,4.21-6.73,3.26-9.92c-0.97-3.26-4.32-5.84-6.74-8.63    c-1.32-1.52-1.12-2.75,0.16-4.1c1.7-1.79,3.34-3.63,5-5.45c5.82-6.37,5.94-6.53,12.7-1.33c3.2,2.46,5.85,3.56,9.33,0.66    c2.62-2.18,7.38-1.59,8.82-4.68c1.38-2.96,0.91-6.81,1.09-10.27c0.12-2.21,0.97-3.18,3.28-3.22c4.25-0.06,8.5-0.33,12.75-0.6    c2.36-0.15,3.51,0.76,3.71,3.17c0.2,2.34,0.86,4.64,1.02,6.98c0.18,2.78,1.12,4.33,4.17,4.9c2.92,0.55,5.74,1.89,8.46,3.16    c1.67,0.78,2.81,0.72,4.16-0.54c2.21-2.07,4.59-3.94,6.86-5.94c1.4-1.23,2.63-1.4,4.06,0.06c1.88,1.91,3.97,3.62,5.9,5.49    c5.96,5.77,6.15,5.95,0.88,12.46c-2.65,3.28-3.35,5.92-0.55,9.32c2.11,2.57,1.59,7.2,4.46,8.61c2.91,1.42,6.79,0.96,10.25,1.14    c2.17,0.11,3.31,0.89,3.36,3.19c0.11,4.48,0.28,8.95,0.57,13.42c0.15,2.22-0.88,2.93-2.88,3.18c-3.11,0.38-6.19,1.01-9.3,1.42    c-1.26,0.17-2,0.53-2.27,1.91c-0.74,3.75-2.07,7.33-3.85,10.71c-0.67,1.27-0.55,2.23,0.4,3.32c2.15,2.44,4.16,4.99,6.29,7.45    c1.14,1.32,1.27,2.47,0.01,3.82c-3.05,3.28-6.06,6.59-9.03,9.95c-1.35,1.53-2.6,1.8-4.31,0.48c-2.39-1.85-4.99-3.42-7.37-5.28    c-1.45-1.13-2.53-1.26-4.16-0.2c-2.91,1.89-6.02,3.48-9.41,4.36c-1.55,0.4-2.15,1.2-2.2,2.81c-0.1,2.8-0.63,5.58-0.62,8.37    c0,3.12-1.48,4.12-4.36,4.07c-2.57-0.05-5.15,0.21-7.72,0.27c-8.09,0.17-7.2,1.43-8.3-6.97c-0.6-4.6-2.21-6.72-6.88-8.82    c-7.13-3.21-11.84-1.95-16.37,3.55c-1.78,2.16-3.5,2.4-5.51,0.15c-1.48-1.67-3.24-3.09-4.91-4.59c-6.51-5.87-6.7-6.01-1.31-13.07    c2.42-3.18,3.24-5.7,0.58-9.07c-2.06-2.59-1.73-7.14-4.45-8.64c-2.7-1.48-6.55-0.84-9.89-1.18c-1.09-0.11-2.29,0.09-3.12-0.91    C304.54,414.42,304.67,413.48,304.62,412.6z M384.81,425.86c12.28-11.11,13.31-29.67,2.33-41.85    c-11.01-12.21-29.81-13.22-41.91-2.27c-12.08,10.95-13.03,29.89-2.1,41.98C353.97,435.7,372.86,436.67,384.81,425.86z"/>
		<path class="st1" d="M476.41,355.14c2.76-0.4,5.57-0.79,8.34-0.7c2.27,0.07,3.34-0.72,4.27-2.74c3.99-8.6,4.06-8.57,13.13-5.62    c6.77,2.2,6.9,2.23,5.32,9.32c-0.76,3.42-0.14,5.39,2.53,8.25c5.05,5.39,9.81,5.76,15.7,2.45c1.93-1.08,3.1-0.23,3.97,1.59    c1.3,2.73,2.71,5.4,4.09,8.1c2.22,4.34,2.38,4.65-1.94,6.91c-4.63,2.42-6.39,5.1-5.82,10.87c0.54,5.52,2.23,8.28,7.23,10.09    c4.77,1.73,4.64,2.1,3.05,6.78c-0.47,1.38-0.87,2.78-1.35,4.15c-2.84,8.19-1.22,7.26-9.6,5.48c-3.54-0.75-5.39,0.2-8.15,2.69    c-5.55,4.99-5.7,9.82-2.36,15.69c1.08,1.9,0.29,3.12-1.55,3.99c-3.14,1.48-6.31,2.91-9.32,4.63c-2.21,1.27-3.95,1.15-4.89-1.22    c-2.6-6.53-7.03-8.08-13.86-6.91c-3.54,0.6-5.45,1.3-6.85,4.61c-2.94,6.97-3.11,6.89-10.14,4.68c-8.83-2.78-8.89-2.79-7.1-11.86    c0.47-2.41,0.44-4.16-2.06-5.54c-1.82-1-3.52-2.49-4.8-4.14c-1.8-2.32-3.52-2.28-6.05-1.28c-8.35,3.3-8.38,3.21-12.34-4.84    c-3.5-7.12-3.6-7.28,3.09-11.35c2.87-1.75,3.32-3.55,3.39-6.89c0.15-7.25-2.34-11.68-9.55-13.3c-1.8-0.4-2.35-1.73-1.65-3.64    c1.27-3.47,2.45-6.98,3.47-10.53c0.68-2.39,1.98-2.95,4.25-2.34c1.94,0.52,3.99,0.64,5.91,1.21c2.42,0.72,3.61-0.44,5.38-1.99    c5.7-4.99,7.24-10.36,3.15-17.01c-0.88-1.43-0.26-2.54,1.19-3.27c3.51-1.75,7.06-3.42,10.48-5.33c1.87-1.04,2.84-0.43,3.82,1.12    c1.44,2.27,2.99,4.47,4.67,6.95C473.97,355.35,475.03,355.34,476.41,355.14z M501.59,416.28c10.8-9.8,11.72-26.4,2.05-37.12    c-9.62-10.66-26.5-11.51-37.2-1.86c-10.66,9.62-11.4,26.32-1.65,37.12C474.45,425.11,490.95,425.94,501.59,416.28z"/>
	</g>
	<g class="st2">
		<path class="st1" d="M142.6,409.92l-0.83-1.97c-2.66-6.29-3.84-10.46-3.55-12.52c0.29-2.06,1.89-5.53,4.79-10.42    c1.52-2.56,2.42-4.72,2.7-6.49c0.27-1.76-0.03-3.68-0.91-5.76c-1.08-2.56-2.74-4.23-4.99-5.01s-4.53-0.68-6.84,0.29    c-6.12,2.59-7.73,8.36-4.83,17.32l-15.05,3.98c-2.23-8.26-1.87-15.38,1.08-21.35c2.95-5.97,7.78-10.38,14.48-13.21    c6.84-2.89,13.41-3.35,19.71-1.37c6.3,1.98,10.72,6,13.28,12.04c3.17,7.5,1.97,15.4-3.6,23.7c-2.42,3.63-3.72,6.21-3.9,7.76    c-0.18,1.54,0.44,3.99,1.85,7.34L142.6,409.92z M167.13,423.44l-16.27,6.88l-6.62-15.65l16.27-6.88L167.13,423.44z"/>
	</g>
	<g class="st2">
		<path class="st1" d="M202.69,422.29l-0.58-1.02c-1.86-3.24-2.78-5.43-2.76-6.57c0.02-1.14,0.66-3.13,1.91-5.98    c0.66-1.49,1-2.73,1.03-3.71c0.03-0.98-0.26-2-0.88-3.07c-0.76-1.32-1.77-2.12-3.04-2.39c-1.27-0.28-2.51-0.07-3.7,0.61    c-3.15,1.81-3.65,5.06-1.48,9.74l-7.92,3.17c-1.76-4.34-2.04-8.24-0.83-11.68c1.21-3.44,3.54-6.16,7-8.15    c3.53-2.03,7.07-2.71,10.62-2.05c3.55,0.66,6.23,2.55,8.02,5.67c2.22,3.87,2.09,8.24-0.39,13.12c-1.07,2.13-1.61,3.63-1.6,4.48    c0,0.85,0.5,2.14,1.5,3.87L202.69,422.29z M216.92,428.01l-8.39,4.82l-4.64-8.07l8.39-4.82L216.92,428.01z"/>
	</g>
	<g class="st2">
		<path class="st1" d="M130,460.05l-0.33-1.12c-1.07-3.58-1.46-5.93-1.17-7.03c0.28-1.1,1.36-2.9,3.24-5.38    c0.99-1.3,1.61-2.42,1.86-3.37c0.25-0.94,0.21-2.01-0.14-3.19c-0.43-1.46-1.24-2.47-2.41-3.03c-1.17-0.56-2.42-0.64-3.74-0.25    c-3.49,1.04-4.71,4.08-3.68,9.13l-8.44,1.25c-0.71-4.63-0.09-8.48,1.88-11.56s4.86-5.18,8.69-6.31c3.9-1.16,7.5-1.01,10.81,0.45    c3.31,1.46,5.47,3.91,6.5,7.36c1.27,4.27,0.14,8.5-3.4,12.68c-1.54,1.83-2.4,3.16-2.59,3.99c-0.19,0.83,0,2.2,0.56,4.11    L130,460.05z M142.54,468.89l-9.28,2.76l-2.65-8.92l9.28-2.76L142.54,468.89z"/>
	</g>
</g>
<g id="alibabot">
	<linearGradient id="SVGID_1_" gradientUnits="userSpaceOnUse" x1="159.4404" y1="324.9005" x2="217.6254" y2="324.9005">
		<stop offset="0.4188" style="stop-color:#CBD6D8"/>
		<stop offset="0.9958" style="stop-color:#677172"/>
	</linearGradient>
	<polygon class="st3" points="213.59,340.04 159.44,321.64 163.48,309.76 217.63,328.17  "/>
	
		<rect x="130.51" y="269.82" transform="matrix(0.1069 -0.9943 0.9943 0.1069 -126.7716 411.0596)" class="st4" width="69.82" height="12.54"/>
	
		<linearGradient id="SVGID_00000051374121650254369000000017592333551035728536_" gradientUnits="userSpaceOnUse" x1="170.5887" y1="199.7968" x2="170.5887" y2="235.4645">
		<stop offset="0.4942" style="stop-color:#CBD6D8"/>
		<stop offset="0.9958" style="stop-color:#677172"/>
	</linearGradient>
	<path style="fill:url(#SVGID_00000051374121650254369000000017592333551035728536_);" d="M181.94,200.31   c10.97,24.16-33.29,24.19-22.28,0c-4.55-2.5-10.02,8.22-9.73,15.93c0.34,9.15,9.53,16.26,16.61,18.87   c5.17,1.91,19.17-3.96,23.3-13.98C193.98,211.11,188.25,196.93,181.94,200.31z"/>
	
		<linearGradient id="SVGID_00000136371463747493217230000008512858225674138520_" gradientUnits="userSpaceOnUse" x1="385.0911" y1="345.0514" x2="440.7804" y2="345.0514">
		<stop offset="4.188817e-03" style="stop-color:#677172"/>
		<stop offset="0.5812" style="stop-color:#CBD6D8"/>
	</linearGradient>
	<polygon style="fill:url(#SVGID_00000136371463747493217230000008512858225674138520_);" points="391.43,325.19 440.78,354.09    434.44,364.91 385.09,336.01  "/>
	
		<rect x="390.87" y="391.23" transform="matrix(0.3043 -0.9526 0.9526 0.3043 -82.443 682.1241)" class="st4" width="69.82" height="12.54"/>
	
		<linearGradient id="SVGID_00000174563049855351219820000004703364233639379343_" gradientUnits="userSpaceOnUse" x1="408.2933" y1="473.6091" x2="408.2933" y2="436.349">
		<stop offset="0.4942" style="stop-color:#CBD6D8"/>
		<stop offset="0.9958" style="stop-color:#677172"/>
	</linearGradient>
	<path style="fill:url(#SVGID_00000174563049855351219820000004703364233639379343_);" d="M394.38,468.43   c-5.9-25.87,37.46-17.01,21.82,4.47c3.96,3.36,11.46-6.04,12.73-13.65c1.5-9.03-6.07-17.84-12.48-21.83   c-4.69-2.91-19.57,0.03-25.64,9.02C384.75,455.43,387.52,470.47,394.38,468.43z"/>
	
		<radialGradient id="SVGID_00000168091508416535482530000008182075523798668165_" cx="227.7234" cy="334.5531" r="22.2457" gradientUnits="userSpaceOnUse">
		<stop offset="0.3089" style="stop-color:#000000"/>
		<stop offset="0.799" style="stop-color:#3C3C3B"/>
	</radialGradient>
	<path style="fill:url(#SVGID_00000168091508416535482530000008182075523798668165_);" d="M250.13,334.55   c-0.5,29.45-44.31,29.45-44.81,0C205.82,305.1,249.63,305.11,250.13,334.55z"/>
	<path class="st9" d="M171.21,314.83c0.21,12.42-21.14,12.42-20.94,0C150.07,302.41,171.42,302.41,171.21,314.83z"/>
	<path class="st9" d="M180.85,233.19c-0.09,18.21-22.38,18.21-22.47,0C158.47,214.98,180.76,214.98,180.85,233.19z"/>
	
		<radialGradient id="SVGID_00000168820665491206392280000011664488404539619201_" cx="381.3793" cy="328.7309" r="22.2822" gradientTransform="matrix(1 0 0 0.9 0 32.8731)" gradientUnits="userSpaceOnUse">
		<stop offset="0.1791" style="stop-color:#000000"/>
		<stop offset="0.888" style="stop-color:#3C3C3B"/>
	</radialGradient>
	<path style="fill:url(#SVGID_00000168820665491206392280000011664488404539619201_);" d="M359.43,324.23   c6.41-28.75,49.32-19.95,43.9,9C396.92,361.98,354.01,353.18,359.43,324.23z"/>
	<path class="st9" d="M427.88,358.39c2.29-12.21,23.21-7.92,20.51,4.2C446.1,374.8,425.19,370.52,427.88,358.39z"/>
	<path class="st9" d="M402.05,436.44c3.74-17.82,25.58-13.35,22.01,4.51C420.32,458.77,398.48,454.29,402.05,436.44z"/>
	<g>
		<path class="st11" d="M246.34,261.48l-24.93,1.9c-4.54,0.35-8.5-3.05-8.85-7.59l-1.9-24.93c-0.35-4.54,3.05-8.5,7.59-8.85    l24.93-1.9c4.54-0.35,8.5,3.05,8.85,7.59l1.9,24.93C254.28,257.17,250.88,261.13,246.34,261.48z"/>
		<path class="st11" d="M386.29,251.77h-25c-4.55,0-8.25-3.69-8.25-8.25v-25c0-4.55,3.69-8.25,8.25-8.25h25    c4.55,0,8.25,3.69,8.25,8.25v25C394.53,248.08,390.84,251.77,386.29,251.77z"/>
		
			<rect x="218.7" y="149.26" transform="matrix(0.9971 -0.0761 0.0761 0.9971 -13.6534 17.3295)" class="st11" width="4.02" height="77.36"/>
		<rect x="381.36" y="137" class="st11" width="4.02" height="77.36"/>
		<path class="st11" d="M223.46,150.28c0.11,7.29-11.34,7.29-11.23,0C212.12,142.99,223.56,142.99,223.46,150.28z"/>
		<path class="st11" d="M388.99,139.04c0.11,7.29-11.34,7.29-11.23,0C377.65,131.75,389.1,131.75,388.99,139.04z"/>
	</g>
	
		<rect x="224.25" y="221.02" transform="matrix(0.9971 -0.0761 0.0761 0.9971 -17.7291 18.1526)" class="st12" width="10.47" height="41.68"/>
	
		<rect x="268.45" y="231.9" transform="matrix(0.9971 -0.0761 0.0761 0.9971 -18.4287 21.5455)" class="st12" width="10.47" height="41.68"/>
	
		<rect x="356.84" y="225.68" transform="matrix(0.0653 -0.9979 0.9979 0.0653 122.587 592.7043)" class="st12" width="41.68" height="10.47"/>
	<path class="st4" d="M227.19,194.66l8.75,89.09c0.68,6.97,6.6,12.24,13.59,12.11l109.27-2.03c6.95-0.13,12.65-5.56,13.12-12.51   l6.41-94.23c0.55-8.06-6.09-14.78-14.14-14.32l-124.43,7.17C232.16,180.38,226.45,187.07,227.19,194.66z"/>
	<path class="st4" d="M275.72,221.34"/>
	<path class="st4" d="M248.06,252.74"/>
	<path class="st13" d="M293.55,233.64c-0.56,32.81-49.36,32.8-49.91,0C244.2,200.83,293,200.84,293.55,233.64z"/>
	<path d="M290.55,233.64c-0.49,28.86-43.43,28.86-43.91,0C247.13,204.78,290.06,204.78,290.55,233.64z"/>
	<path class="st13" d="M358.97,232.13c-0.56,32.81-49.36,32.8-49.91,0C309.62,199.32,358.42,199.33,358.97,232.13z"/>
	<path d="M355.97,232.13c-0.49,28.86-43.43,28.86-43.91,0C312.55,203.26,355.48,203.27,355.97,232.13z"/>
	<g>
		<path class="st14" d="M278.09,272.04c4.33,1.03,8.26,2.09,12.17,2.71c7.83,1.34,15.27,0.95,23.02-0.78    c3.91-0.83,7.84-2.02,12.16-3.07C314.04,285.49,289.92,286.76,278.09,272.04L278.09,272.04z"/>
	</g>
	<g>
		<path class="st15" d="M276.78,263.29c-42.15,4.32-42.03-8.43-43.08-45.38l63.44-3.05C298.04,233.83,303.61,260.79,276.78,263.29z"/>
		<path class="st15" d="M349.23,259.8c-42.15,4.32-42.03-8.43-43.08-45.38l63.44-3.05C370.49,230.34,376.06,257.31,349.23,259.8z"/>
		
			<rect x="297.33" y="213.34" transform="matrix(0.9988 -0.048 0.048 0.9988 -10.1581 14.7339)" class="st14" width="8.37" height="10.81"/>
	</g>
	
		<linearGradient id="SVGID_00000095301344647994739450000005799977749349857212_" gradientUnits="userSpaceOnUse" x1="302.6369" y1="291.2407" x2="302.6369" y2="275.1744">
		<stop offset="0.6199" style="stop-color:#FFFFFF"/>
		<stop offset="0.9346" style="stop-color:#C6C6C6"/>
	</linearGradient>
	<path style="fill:url(#SVGID_00000095301344647994739450000005799977749349857212_);" d="M313.38,276.24   c-0.01-0.36-0.05-0.72-0.11-1.07c-7.09,1.75-14.28,2.33-21.52,1.68c-0.73,8.33,2.21,15.32,12.2,14.29   C312.85,290.84,314.34,283.15,313.38,276.24z"/>
	<path class="st17" d="M302.65,276.91"/>
	<path class="st13" d="M240.32,222.96"/>
	<path class="st13" d="M257.52,230.78c0.1,7.06-10.99,7.06-10.88,0C246.54,223.72,257.63,223.72,257.52,230.78z"/>
	<path class="st13" d="M322.57,225.98c0.1,7.06-10.99,7.06-10.88,0C311.58,218.92,322.67,218.92,322.57,225.98z"/>
	<g class="st2">
		<path class="st18" d="M291.3,233.02"/>
	</g>
	<g class="st2">
		<path class="st18" d="M260.15,257.09"/>
	</g>
	<line class="st19" x1="303.09" y1="291.2" x2="302.25" y2="276.94"/>
	<path class="st20" d="M324.69,143.41l-55.44,4.23l1.73,32.72c0.58,7.55,16.17,17.08,29.85,16.14   c14.05-0.97,26.18-12.61,25.59-20.37L324.69,143.41z"/>
	<path class="st21" d="M324.6,143c1.61,3.59-56.38,8.01-55.33,4.22C267.66,143.63,325.66,139.21,324.6,143z"/>
	<g>
		<path class="st22" d="M318.52,171.35c8.66,7.05,6.62,19.01-2.83,24.01l1.73-6.8l-4.81,6.8c0,0-0.59-8.41,2.6-11.28    c3.17-2.87,0.87-2.88-2.79-0.47C312.14,181.31,320.15,175.06,318.52,171.35z"/>
		<path class="st23" d="M318.52,171.35c7.26,4.53,8.47,13.19,3.44,19.96c-1.94,2.72-4.86,4.55-7.8,6c0.36-1.42,1.9-7.45,2.29-8.99    c0,0,1.79,0.82,1.79,0.82c-1.18,1.67-5.36,7.58-6.48,9.16c0,0-0.14-2.87-0.14-2.87c-0.11-3.41-0.02-6.72,1.4-9.93    c0.48-1.34,1.82-2.28,2.65-3.37c0.12-0.18,0.01-0.14,0.05,0.15c0,0.25,0.38,0.58,0.54,0.58c-0.07,0-0.21,0.03-0.36,0.08    c-1.5,0.47-2.99,1.57-4.32,2.42c0,0-0.15-1.63-0.15-1.63c-0.06-1.01,0.32-1.55,0.72-2.28c0.91-1.55,2.21-2.89,3.44-4.17    C316.98,175.59,319.02,173.75,318.52,171.35L318.52,171.35z M318.52,171.35c0.61,1.07,0.36,2.46-0.06,3.58    c-0.61,1.67-1.68,3.28-2.63,4.77c-0.71,1.28-2.05,2.42-2.42,3.79c0,0-1.54-0.71-1.54-0.71c1.33-0.82,2.66-1.72,4.29-1.91    c0.2-0.02,0.64,0.02,0.91,0.18c0.63,0.28,0.77,1.26,0.52,1.71c-0.65,1.48-2.17,2.09-2.76,3.6c-1.2,2.67-1.32,6.01-1.21,8.94    c0,0-1.81-0.51-1.81-0.51c1.9-2.69,6.06-8.57,7.92-11.2c-0.74,2.92-2.31,9.08-3.06,12.03c0,0-1.44-1.13-1.44-1.13    c2.01-1.07,3.79-2.55,5.13-4.36C324.72,184.54,323.32,176.23,318.52,171.35L318.52,171.35z"/>
	</g>
	<g>
		<path class="st24" d="M293.82,145.61c7.19-1.56,14.56-0.51,19.26,5.68c4.3,5.73,5.32,13.12,5.43,20.06    c-0.12-0.86-0.24-1.73-0.34-2.59c-0.38-2.4-0.89-5.31-1.55-7.63C313.38,149.23,306.04,144.24,293.82,145.61L293.82,145.61z"/>
	</g>
	<path class="st4" d="M254.01,306.49c-3.92,0.15-7.6,1.01-10.94,2.43c3.9-0.89,8.42-1.73,13.45-2.52L254.01,306.49z"/>
	<path class="st4" d="M379.8,313.06c-20.59,9.56-131.61,14.93-149.37,5.93c-5.29,7.31-7.24,16.92-4.09,26.37l30.33,91.16   c1.1,3.3,31.62,41.08,59.81,40.57c26.8-0.48,51.34-39.07,52.04-42.78l18.09-96.55C388.36,328.45,385.5,319.56,379.8,313.06z"/>
	<path class="st4" d="M306.16,333.42c33.89-2.7,62.85-9.59,75.22-17.13c-5.95-11.24-14.9-18.31-24.97-17.7   c0,0-102.59,6.29-102.59,6.29c-11.16,2.16-20.74,6.19-26.98,21.57C236.93,333.31,268.68,336.4,306.16,333.42z"/>
	<path class="st25" d="M307.09,324.3c33.48-1.9,60.49-5.92,72.71-11.24c-5.88-7.94-11.49-14.92-21.44-14.49   c0,0-104.55,6.31-104.55,6.31c-11.02,1.53-19.92,6.88-26.09,17.74C237.7,327.46,270.07,326.4,307.09,324.3z"/>
	<ellipse class="st26" cx="313.97" cy="506.94" rx="56.82" ry="9.7"/>
	
		<linearGradient id="SVGID_00000002370953017900224760000009858265340316361095_" gradientUnits="userSpaceOnUse" x1="144.9933" y1="113.6238" x2="144.9933" y2="199.0688">
		<stop offset="0.6199" style="stop-color:#8FE7FF"/>
		<stop offset="0.9346" style="stop-color:#78C5FF"/>
	</linearGradient>
	<path style="fill:url(#SVGID_00000002370953017900224760000009858265340316361095_);" d="M77.27,134.49   c13.55-21.86,62.08-24.53,86.4-17.21c31.2,9.39,25.23,43.8,28.95,65.21c3.31,9.17,31.55,11.67,23.38,12.07   c-2.79,0.14-86.76,11.63-124.58-2.64C65.81,182.25,71.86,143.23,77.27,134.49z"/>
	<g>
		<g class="st28">
			<path class="st29" d="M104.97,164.59c-1.49,0-2.76-0.53-3.8-1.58s-1.56-2.31-1.56-3.79c0-1.49,0.52-2.76,1.56-3.8     c1.04-1.04,2.31-1.56,3.8-1.56c1.49,0,2.76,0.52,3.8,1.56c1.04,1.04,1.56,2.31,1.56,3.8c0,1.47-0.52,2.74-1.56,3.79     C107.73,164.06,106.46,164.59,104.97,164.59z M128.55,164.59c-1.49,0-2.76-0.53-3.8-1.58s-1.56-2.31-1.56-3.79     c0-1.49,0.52-2.76,1.56-3.8c1.04-1.04,2.31-1.56,3.8-1.56c1.49,0,2.76,0.52,3.8,1.56c1.04,1.04,1.56,2.31,1.56,3.8     c0,1.47-0.52,2.74-1.56,3.79C131.31,164.06,130.04,164.59,128.55,164.59z M152.13,164.59c-1.49,0-2.76-0.53-3.8-1.58     s-1.56-2.31-1.56-3.79c0-1.49,0.52-2.76,1.56-3.8c1.04-1.04,2.31-1.56,3.8-1.56c1.49,0,2.76,0.52,3.8,1.56     c1.04,1.04,1.56,2.31,1.56,3.8c0,1.47-0.52,2.74-1.56,3.79S153.62,164.59,152.13,164.59z"/>
		</g>
	</g>
	<path class="st30" d="M149.93,121.43"/>
</g>
</svg>