<?xml version="1.0" encoding="utf-8"?>
<!-- Generator: Adobe Illustrator 27.3.1, SVG Export Plug-In . SVG Version: 6.00 Build 0)  -->
<svg version="1.1" id="Camada_1" xmlns="http://www.w3.org/2000/svg" xmlns:xlink="http://www.w3.org/1999/xlink" x="0px" y="0px"
	 viewBox="0 0 600 600" style="enable-background:new 0 0 600 600;" xml:space="preserve">
<style type="text/css">
	.st0{clip-path:url(#SVGID_00000102519249089793697280000012709204200760115348_);}
	.st1{clip-path:url(#SVGID_00000158007981749917574300000009930513307478985109_);}
	
		.st2{clip-path:url(#SVGID_00000165913912925655160110000015615214678148760214_);fill:url(#SVGID_00000037691148614143996880000006198258126513733767_);}
	
		.st3{clip-path:url(#SVGID_00000105389916945453557790000009626704450868314289_);fill:none;stroke:#000000;stroke-width:9;stroke-miterlimit:10;}
	.st4{clip-path:url(#SVGID_00000105389916945453557790000009626704450868314289_);fill:#FFFFFF;}
	
		.st5{clip-path:url(#SVGID_00000105389916945453557790000009626704450868314289_);fill:none;stroke:#2E3034;stroke-width:9;stroke-miterlimit:10;}
	.st6{clip-path:url(#SVGID_00000105389916945453557790000009626704450868314289_);fill:#313338;}
	
		.st7{clip-path:url(#SVGID_00000105389916945453557790000009626704450868314289_);fill:none;stroke:#FFFFFF;stroke-width:9;stroke-miterlimit:10;}
	.st8{clip-path:url(#SVGID_00000105389916945453557790000009626704450868314289_);fill:#F23D3D;}
	
		.st9{clip-path:url(#SVGID_00000105389916945453557790000009626704450868314289_);fill:none;stroke:#000000;stroke-width:8;stroke-miterlimit:10;}
	.st10{clip-path:url(#SVGID_00000105389916945453557790000009626704450868314289_);fill:#FFF799;}
	.st11{clip-path:url(#SVGID_00000105389916945453557790000009626704450868314289_);fill:#2D2B29;}
	
		.st12{clip-path:url(#SVGID_00000105389916945453557790000009626704450868314289_);fill:none;stroke:#313338;stroke-width:9;stroke-miterlimit:10;}
	.st13{clip-path:url(#SVGID_00000105389916945453557790000009626704450868314289_);fill:#FFF0F0;}
	.st14{opacity:0.53;clip-path:url(#SVGID_00000105389916945453557790000009626704450868314289_);}
	.st15{clip-path:url(#SVGID_00000090986706975255509870000016205065476514620586_);fill:#443E3E;}
	.st16{clip-path:url(#SVGID_00000044167505876585596250000005857033462000821665_);fill:#443E3E;}
	.st17{opacity:0.47;clip-path:url(#SVGID_00000105389916945453557790000009626704450868314289_);}
	.st18{clip-path:url(#SVGID_00000142136876966501755090000008561717625986372500_);fill:#443E3E;}
	.st19{clip-path:url(#SVGID_00000155842180755334356190000007379572918514770091_);fill:#443E3E;}
	
		.st20{clip-path:url(#SVGID_00000178924576736702295180000003425585565550810763_);fill:url(#SVGID_00000167375972608059236540000004031775752532735652_);}
	
		.st21{clip-path:url(#SVGID_00000120549470356896972590000004733404557983780756_);fill:none;stroke:#313338;stroke-width:8;stroke-miterlimit:10;}
	.st22{clip-path:url(#SVGID_00000120549470356896972590000004733404557983780756_);fill:#FFFFFF;}
	.st23{clip-path:url(#SVGID_00000120549470356896972590000004733404557983780756_);}
	.st24{clip-path:url(#SVGID_00000115510795967303088730000004736555233111420322_);fill:#B73FEF;}
	.st25{clip-path:url(#SVGID_00000120549470356896972590000004733404557983780756_);fill:#282828;}
	
		.st26{clip-path:url(#SVGID_00000120549470356896972590000004733404557983780756_);fill:none;stroke:#3D3D3D;stroke-width:12;stroke-miterlimit:10;}
	.st27{opacity:0.41;clip-path:url(#SVGID_00000120549470356896972590000004733404557983780756_);}
	.st28{clip-path:url(#SVGID_00000084519159887085883740000003575675370046073506_);fill:#FFFFFF;}
	.st29{clip-path:url(#SVGID_00000020390260276001011450000016749589721990796469_);fill:#FFFFFF;}
	.st30{clip-path:url(#SVGID_00000120549470356896972590000004733404557983780756_);fill:#2D2B29;}
	.st31{opacity:0.28;clip-path:url(#SVGID_00000120549470356896972590000004733404557983780756_);}
	
		.st32{clip-path:url(#SVGID_00000059291637748771297520000011764997331667095214_);fill:none;stroke:#2D2B29;stroke-width:7;stroke-miterlimit:10;}
	
		.st33{clip-path:url(#SVGID_00000103234957033363044850000010748241441587108508_);fill:none;stroke:#2D2B29;stroke-width:7;stroke-miterlimit:10;}
</style>
<g>
	<g>
		<defs>
			<rect id="SVGID_1_" x="-45" y="-80" width="800" height="800"/>
		</defs>
		<clipPath id="SVGID_00000031889742890621071540000018159144243454407097_">
			<use xlink:href="#SVGID_1_"  style="overflow:visible;"/>
		</clipPath>
		<g style="clip-path:url(#SVGID_00000031889742890621071540000018159144243454407097_);">
			<defs>
				<rect id="SVGID_00000126296000795473301740000003303421031096731814_" x="-45" y="-80" width="800" height="800"/>
			</defs>
			<clipPath id="SVGID_00000124865173625753800580000018273555766959259321_">
				<use xlink:href="#SVGID_00000126296000795473301740000003303421031096731814_"  style="overflow:visible;"/>
			</clipPath>
			<g style="clip-path:url(#SVGID_00000124865173625753800580000018273555766959259321_);">
				<defs>
					<path id="SVGID_00000168111737719779140240000006953312489340134847_" d="M498,63.64c0,11.08,6.56,20.62,16,24.98v181.09h-15
						V195.5c0-15.74-12.76-28.5-28.5-28.5h-344c-15.74,0-28.5,12.76-28.5,28.5v77.07H83V91.48c9.44-4.35,16-13.9,16-24.98
						C99,51.31,86.69,39,71.5,39S44,51.31,44,66.5c0,11.85,7.49,21.95,18,25.81v180.26H46.73c-12.15,0-22,9.85-22,22v95.86
						c0,12.15,9.85,22,22,22H98V514.5c0,15.74,12.76,28.5,28.5,28.5h344c15.74,0,28.5-12.76,28.5-28.5V409.57h51.27
						c12.15,0,22-9.85,22-22v-95.86c0-12.15-9.85-22-22-22H535V89.45c10.51-3.87,18-13.97,18-25.81c0-15.19-12.31-27.5-27.5-27.5
						C510.31,36.14,498,48.45,498,63.64"/>
				</defs>
				<clipPath id="SVGID_00000170969926269964756550000016822737510580690835_">
					<use xlink:href="#SVGID_00000168111737719779140240000006953312489340134847_"  style="overflow:visible;"/>
				</clipPath>
				
					<linearGradient id="SVGID_00000041260863101897450090000009121718922423892880_" gradientUnits="userSpaceOnUse" x1="1.4205" y1="-0.0888" x2="2.4205" y2="-0.0888" gradientTransform="matrix(0 506.8621 506.8621 0 343.5 -683.8621)">
					<stop  offset="0" style="stop-color:#898D93"/>
					<stop  offset="0.8209" style="stop-color:#898D93"/>
					<stop  offset="1" style="stop-color:#52575B"/>
				</linearGradient>
				
					<rect x="24.73" y="36.14" style="clip-path:url(#SVGID_00000170969926269964756550000016822737510580690835_);fill:url(#SVGID_00000041260863101897450090000009121718922423892880_);" width="547.53" height="506.86"/>
			</g>
			<g style="clip-path:url(#SVGID_00000124865173625753800580000018273555766959259321_);">
				<defs>
					<rect id="SVGID_00000129912528884505925410000015868120145091860352_" x="-45" y="-80" width="800" height="800"/>
				</defs>
				<clipPath id="SVGID_00000103966254354423747870000010569511968157365939_">
					<use xlink:href="#SVGID_00000129912528884505925410000015868120145091860352_"  style="overflow:visible;"/>
				</clipPath>
				
					<path style="clip-path:url(#SVGID_00000103966254354423747870000010569511968157365939_);fill:none;stroke:#000000;stroke-width:9;stroke-miterlimit:10;" d="
					M550.27,269.71H535V89.45c10.51-3.87,18-13.96,18-25.81c0-15.19-12.31-27.5-27.5-27.5c-15.19,0-27.5,12.31-27.5,27.5
					c0,11.08,6.56,20.62,16,24.98v181.09h-15V195.5c0-15.74-12.76-28.5-28.5-28.5h-344c-15.74,0-28.5,12.76-28.5,28.5v77.07H83
					V91.48c9.44-4.35,16-13.9,16-24.98C99,51.31,86.69,39,71.5,39C56.31,39,44,51.31,44,66.5c0,11.85,7.49,21.95,18,25.81v180.26
					H46.73c-12.15,0-22,9.85-22,22v95.86c0,12.15,9.85,22,22,22H98V514.5c0,15.74,12.76,28.5,28.5,28.5h344
					c15.74,0,28.5-12.76,28.5-28.5V409.57h51.27c12.15,0,22-9.85,22-22v-95.86C572.27,279.56,562.42,269.71,550.27,269.71z"/>
				<path style="clip-path:url(#SVGID_00000103966254354423747870000010569511968157365939_);fill:#FFFFFF;" d="M276,337
					c0,40.32-32.68,73-73,73s-73-32.68-73-73s32.68-73,73-73S276,296.68,276,337"/>
				
					<circle style="clip-path:url(#SVGID_00000103966254354423747870000010569511968157365939_);fill:none;stroke:#2E3034;stroke-width:9;stroke-miterlimit:10;" cx="203" cy="337" r="73"/>
				<path style="clip-path:url(#SVGID_00000103966254354423747870000010569511968157365939_);fill:#313338;" d="M256.81,337.23
					c0,30.2-24.09,54.68-53.81,54.68c-29.72,0-53.81-24.48-53.81-54.68c0-30.2,24.09-54.67,53.81-54.67
					C232.72,282.55,256.81,307.03,256.81,337.23"/>
				
					<path style="clip-path:url(#SVGID_00000103966254354423747870000010569511968157365939_);fill:none;stroke:#FFFFFF;stroke-width:9;stroke-miterlimit:10;" d="
					M256.81,337.23c0,30.2-24.09,54.68-53.81,54.68c-29.72,0-53.81-24.48-53.81-54.68c0-30.2,24.09-54.67,53.81-54.67
					C232.72,282.55,256.81,307.03,256.81,337.23z"/>
				<path style="clip-path:url(#SVGID_00000103966254354423747870000010569511968157365939_);fill:#FFFFFF;" d="M471.5,336.57
					c0,40.32-32.68,73-73,73s-73-32.68-73-73s32.68-73,73-73S471.5,296.25,471.5,336.57"/>
				
					<circle style="clip-path:url(#SVGID_00000103966254354423747870000010569511968157365939_);fill:none;stroke:#2E3034;stroke-width:9;stroke-miterlimit:10;" cx="398.5" cy="336.57" r="73"/>
				<path style="clip-path:url(#SVGID_00000103966254354423747870000010569511968157365939_);fill:#313338;" d="M452.31,337.23
					c0,30.2-24.09,54.68-53.81,54.68c-29.72,0-53.81-24.48-53.81-54.68c0-30.2,24.09-54.67,53.81-54.67
					C428.22,282.55,452.31,307.03,452.31,337.23"/>
				
					<path style="clip-path:url(#SVGID_00000103966254354423747870000010569511968157365939_);fill:none;stroke:#FFFFFF;stroke-width:9;stroke-miterlimit:10;" d="
					M452.31,337.23c0,30.2-24.09,54.68-53.81,54.68c-29.72,0-53.81-24.48-53.81-54.68c0-30.2,24.09-54.67,53.81-54.67
					C428.22,282.55,452.31,307.03,452.31,337.23z"/>
				<path style="clip-path:url(#SVGID_00000103966254354423747870000010569511968157365939_);fill:#F23D3D;" d="M359.7,215.6
					c-39.01,9.54-79.91,9.54-118.92,0c0,0-39.78-12.91-39.78-22.06l6.65-104.7c0.41-6.38,14.32-8.64,34.71-10.87
					c42.07-4.59,78.83-4.2,119.43,0.59c20.69,2.44,31.39,4.04,31.76,10.5l5.92,104.49C399.48,202.69,359.7,215.6,359.7,215.6"/>
				
					<path style="clip-path:url(#SVGID_00000103966254354423747870000010569511968157365939_);fill:none;stroke:#000000;stroke-width:8;stroke-miterlimit:10;" d="
					M359.7,215.6c-39.01,9.54-79.91,9.54-118.92,0c0,0-39.78-12.91-39.78-22.06l6.65-104.7c0.41-6.38,14.32-8.64,34.71-10.87
					c42.07-4.59,78.83-4.2,119.43,0.59c20.69,2.44,31.39,4.04,31.76,10.5l5.92,104.49C399.48,202.69,359.7,215.6,359.7,215.6z"/>
				<path style="clip-path:url(#SVGID_00000103966254354423747870000010569511968157365939_);fill:#FFF799;" d="M367.01,167.66
					c0,0,20.82,20.94,13.93,42.89c-6.89,21.96-21.45,29.36-21.45,29.36l4.6-20.45l-12.76,20.45c0,0-1.56-25.3,6.89-33.96
					c8.43-8.63,2.3-8.68-7.4-1.4c0,0,0-6,9.19-16.21C369.19,178.13,367.01,167.66,367.01,167.66"/>
				<path style="clip-path:url(#SVGID_00000103966254354423747870000010569511968157365939_);fill:#2D2B29;" d="M367.01,167.66
					c7.44,6.48,13.58,14.85,16.69,24.32c1.53,6.41,1.58,13.28-0.47,19.58c-0.55,1.45-1.23,3.74-1.88,5.14
					c-4,9.77-10.46,18.84-19.39,24.67c-0.93,0.66-5.06,2.72-6.1,3.32c0.75-3.33,4.95-22.01,5.79-25.76l4.56,1.87
					c-3.02,4.84-14.18,22.71-17.01,27.25l-0.38-7.97c-0.3-11.21-0.13-28.34,8.4-36.7c0.85-0.92,2.08-2.37,2.47-3.33
					c0.01-0.01-0.02,0.1-0.01,0.15c0,0.6,0.52,1.38,1.16,1.55c0.23,0.09,0.26,0.02,0.12,0.05c-0.09,0.01-0.27,0.04-0.46,0.09
					c-4.35,1.35-8.62,5.08-12.35,7.76l0.15-5.08c0.28-4,2.35-7.53,4.32-10.86c1.79-3,4.75-5.53,7.06-7.93
					C364.27,180.99,367.29,174.46,367.01,167.66 M367.01,167.66c1.75,6.93-0.31,14.63-4.38,20.46c-1.6,2.28-3.02,4.06-4.37,6.31
					c-2,2.9-4.04,5.91-4.83,9.36c-0.06,0.16-0.12,0.72-0.13,0.76l-4-2c3.08-2.23,6.13-4.39,9.96-5.52c2.65-0.87,5.81,0.42,5.38,3.7
					c-0.66,3.1-2.98,5.06-4.91,7.27c-6.08,7.55-6.17,22.26-5.92,31.75c0,0-4.61-1.17-4.61-1.17l12.77-20.45l7.78-12.47l-3.22,14.34
					l-4.6,20.45l-3.57-2.78c8.53-5.14,14.62-13.78,18.37-22.89c0.26-0.58,0.72-1.76,0.91-2.36c2.1-5.33,2.8-11.15,1.65-16.82
					C377.53,185.43,373.36,176.04,367.01,167.66"/>
				<path style="clip-path:url(#SVGID_00000103966254354423747870000010569511968157365939_);fill:#FFFFFF;" d="M161.32,441.94
					L161.32,441.94c0,25.38,20.58,45.96,45.96,45.96h181.91c25.38,0,45.96-20.58,45.96-45.96H161.32z"/>
				
					<path style="clip-path:url(#SVGID_00000103966254354423747870000010569511968157365939_);fill:none;stroke:#313338;stroke-width:9;stroke-miterlimit:10;" d="
					M161.32,441.94L161.32,441.94c0,25.38,20.58,45.96,45.96,45.96h181.91c25.38,0,45.96-20.58,45.96-45.96H161.32z"/>
				<path style="clip-path:url(#SVGID_00000103966254354423747870000010569511968157365939_);fill:#FFF0F0;" d="M190.53,320.95
					c0,8.63-6.99,15.62-15.62,15.62c-8.63,0-15.62-6.99-15.62-15.62c0-8.63,6.99-15.62,15.62-15.62
					C183.54,305.33,190.53,312.32,190.53,320.95"/>
				<path style="clip-path:url(#SVGID_00000103966254354423747870000010569511968157365939_);fill:#FFF0F0;" d="M388.66,318.89
					c0,8.63-6.99,15.62-15.62,15.62c-8.63,0-15.62-6.99-15.62-15.62c0-8.63,6.99-15.62,15.62-15.62
					C381.67,303.28,388.66,310.27,388.66,318.89"/>
				<g style="opacity:0.53;clip-path:url(#SVGID_00000103966254354423747870000010569511968157365939_);">
					<g>
						<defs>
							<rect id="SVGID_00000088822020262680777510000010988263158281280942_" x="45.47" y="41.17" width="52.47" height="52.47"/>
						</defs>
						<clipPath id="SVGID_00000077317410225771784500000015580243290707872180_">
							<use xlink:href="#SVGID_00000088822020262680777510000010988263158281280942_"  style="overflow:visible;"/>
						</clipPath>
						<path style="clip-path:url(#SVGID_00000077317410225771784500000015580243290707872180_);fill:#443E3E;" d="M97.94,67.4
							c0,14.49-11.75,26.23-26.23,26.23S45.47,81.89,45.47,67.4c0-14.49,11.75-26.23,26.23-26.23S97.94,52.92,97.94,67.4"/>
					</g>
				</g>
				<g style="opacity:0.53;clip-path:url(#SVGID_00000103966254354423747870000010569511968157365939_);">
					<g>
						<defs>
							<rect id="SVGID_00000013882958937191185640000011571987809059019393_" x="500.11" y="36.14" width="52.47" height="52.47"/>
						</defs>
						<clipPath id="SVGID_00000052081157696586692910000006927893456146307255_">
							<use xlink:href="#SVGID_00000013882958937191185640000011571987809059019393_"  style="overflow:visible;"/>
						</clipPath>
						<path style="clip-path:url(#SVGID_00000052081157696586692910000006927893456146307255_);fill:#443E3E;" d="M552.57,62.37
							c0,14.49-11.75,26.23-26.23,26.23c-14.49,0-26.23-11.74-26.23-26.23c0-14.49,11.74-26.23,26.23-26.23
							C540.83,36.14,552.57,47.88,552.57,62.37"/>
					</g>
				</g>
				<g style="opacity:0.47;clip-path:url(#SVGID_00000103966254354423747870000010569511968157365939_);">
					<g>
						<defs>
							<rect id="SVGID_00000131357756661031352290000005948890356800201906_" x="71.7" y="276.66" width="31.45" height="139.77"/>
						</defs>
						<clipPath id="SVGID_00000114068887737930637700000015728223753396064657_">
							<use xlink:href="#SVGID_00000131357756661031352290000005948890356800201906_"  style="overflow:visible;"/>
						</clipPath>
						
							<rect x="71.7" y="276.66" style="clip-path:url(#SVGID_00000114068887737930637700000015728223753396064657_);fill:#443E3E;" width="31.45" height="139.77"/>
					</g>
				</g>
				<g style="opacity:0.47;clip-path:url(#SVGID_00000103966254354423747870000010569511968157365939_);">
					<g>
						<defs>
							
								<rect id="SVGID_00000064313937601038841380000003005771111970712457_" x="494.89" y="272.66" width="31.45" height="139.77"/>
						</defs>
						<clipPath id="SVGID_00000092421941052313314930000006298702480967802755_">
							<use xlink:href="#SVGID_00000064313937601038841380000003005771111970712457_"  style="overflow:visible;"/>
						</clipPath>
						
							<rect x="494.89" y="272.66" style="clip-path:url(#SVGID_00000092421941052313314930000006298702480967802755_);fill:#443E3E;" width="31.45" height="139.77"/>
					</g>
				</g>
			</g>
			<g style="clip-path:url(#SVGID_00000124865173625753800580000018273555766959259321_);">
				<defs>
					<path id="SVGID_00000011720800791518259540000005403037739766458500_" d="M250.21,441.94l-0.1,13.88
						c-0.18,27.06,21.44,49.7,48.49,49.7c0.68,0,1.36-0.01,2.04-0.04c26.1-0.93,46.56-22.85,46.74-48.97l0.1-14.58H250.21z"/>
				</defs>
				<clipPath id="SVGID_00000072992722787383892540000010643858408939681671_">
					<use xlink:href="#SVGID_00000011720800791518259540000005403037739766458500_"  style="overflow:visible;"/>
				</clipPath>
				
					<linearGradient id="SVGID_00000020365934515554206820000000222575700139599236_" gradientUnits="userSpaceOnUse" x1="-11.3242" y1="0.7092" x2="-10.3242" y2="0.7092" gradientTransform="matrix(0 -63.5804 -63.5804 0 343.8033 -214.4834)">
					<stop  offset="0" style="stop-color:#FFFFFF"/>
					<stop  offset="0.7497" style="stop-color:#FFFFFF"/>
					<stop  offset="1" style="stop-color:#727272"/>
				</linearGradient>
				
					<rect x="249.93" y="441.94" style="clip-path:url(#SVGID_00000072992722787383892540000010643858408939681671_);fill:url(#SVGID_00000020365934515554206820000000222575700139599236_);" width="97.56" height="63.58"/>
			</g>
			<g style="clip-path:url(#SVGID_00000124865173625753800580000018273555766959259321_);">
				<defs>
					<rect id="SVGID_00000159441631696494329330000002597725985992817536_" x="-45" y="-80" width="800" height="800"/>
				</defs>
				<clipPath id="SVGID_00000116202908413266547720000010038598493364827816_">
					<use xlink:href="#SVGID_00000159441631696494329330000002597725985992817536_"  style="overflow:visible;"/>
				</clipPath>
				
					<path style="clip-path:url(#SVGID_00000116202908413266547720000010038598493364827816_);fill:none;stroke:#313338;stroke-width:8;stroke-miterlimit:10;" d="
					M250.21,441.94l-0.09,13.88c-0.18,27.06,21.44,49.7,48.49,49.7c0.68,0,1.36-0.01,2.04-0.04c26.1-0.93,46.56-22.85,46.74-48.97
					l0.1-14.58H250.21z"/>
				
					<line style="clip-path:url(#SVGID_00000116202908413266547720000010038598493364827816_);fill:#FFFFFF;" x1="298.61" y1="505.52" x2="298.23" y2="441.94"/>
				
					<line style="clip-path:url(#SVGID_00000116202908413266547720000010038598493364827816_);fill:none;stroke:#313338;stroke-width:8;stroke-miterlimit:10;" x1="298.61" y1="505.52" x2="298.23" y2="441.94"/>
				<g style="clip-path:url(#SVGID_00000116202908413266547720000010038598493364827816_);">
					<g>
						<defs>
							<rect id="SVGID_00000005249628605721339200000002621148380530954418_" x="209.28" y="75.81" width="184.28" height="32.42"/>
						</defs>
						<clipPath id="SVGID_00000053515488331101708980000003904971544947210140_">
							<use xlink:href="#SVGID_00000005249628605721339200000002621148380530954418_"  style="overflow:visible;"/>
						</clipPath>
						<path style="clip-path:url(#SVGID_00000053515488331101708980000003904971544947210140_);fill:#B73FEF;" d="M393.55,92.02
							c0,8.95-41.25,16.21-92.14,16.21s-92.14-7.26-92.14-16.21c0-8.95,41.25-16.21,92.14-16.21S393.55,83.07,393.55,92.02"/>
					</g>
				</g>
				
					<rect x="275.23" y="264.21" style="clip-path:url(#SVGID_00000116202908413266547720000010038598493364827816_);fill:#282828;" width="44.91" height="20.7"/>
				
					<path style="clip-path:url(#SVGID_00000116202908413266547720000010038598493364827816_);fill:none;stroke:#3D3D3D;stroke-width:12;stroke-miterlimit:10;" d="
					M226.55,410H149.3c-26.96,0-48.81-21.85-48.81-48.81v-96.98h174.75v97.11C275.23,388.21,253.44,410,226.55,410z"/>
				
					<path style="clip-path:url(#SVGID_00000116202908413266547720000010038598493364827816_);fill:none;stroke:#3D3D3D;stroke-width:12;stroke-miterlimit:10;" d="
					M446.21,410h-77.26c-26.96,0-48.81-21.85-48.81-48.81v-96.98h174.75v97.11C494.89,388.21,473.1,410,446.21,410z"/>
				<g style="opacity:0.41;clip-path:url(#SVGID_00000116202908413266547720000010038598493364827816_);">
					<g>
						<defs>
							
								<rect id="SVGID_00000044163858283933519030000011666026404597881012_" x="136.77" y="272.66" width="130.04" height="130.38"/>
						</defs>
						<clipPath id="SVGID_00000176033401612019648390000003506199692299017904_">
							<use xlink:href="#SVGID_00000044163858283933519030000011666026404597881012_"  style="overflow:visible;"/>
						</clipPath>
						<polygon style="clip-path:url(#SVGID_00000176033401612019648390000003506199692299017904_);fill:#FFFFFF;" points="
							136.77,397.26 259.66,272.66 266.81,282.55 149.19,403.04 						"/>
					</g>
				</g>
				<g style="opacity:0.41;clip-path:url(#SVGID_00000116202908413266547720000010038598493364827816_);">
					<g>
						<defs>
							<rect id="SVGID_00000173868195932702206310000008495951878909564803_" x="355" y="272.04" width="130.04" height="130.38"/>
						</defs>
						<clipPath id="SVGID_00000091014082594708291490000013197555217280537240_">
							<use xlink:href="#SVGID_00000173868195932702206310000008495951878909564803_"  style="overflow:visible;"/>
						</clipPath>
						<polygon style="clip-path:url(#SVGID_00000091014082594708291490000013197555217280537240_);fill:#FFFFFF;" points="
							355,396.63 477.89,272.04 485.04,281.93 367.42,402.42 						"/>
					</g>
				</g>
				<path style="clip-path:url(#SVGID_00000116202908413266547720000010038598493364827816_);fill:#2D2B29;" d="M301.42,90.19
					c19.5-5.66,44.75-1.07,55.04,18.18c1.89,3.42,3.29,7.24,4.26,11.02c1.64,6,3.13,12.17,4.27,18.29
					c1.72,9.83,3.38,20.01,2.02,29.97c-1.14-9.83-4.01-19.37-6.61-28.9c-1.73-6.15-3.94-13.39-5.8-19.52
					C347.44,95.46,323.78,89.65,301.42,90.19"/>
				<g style="opacity:0.28;clip-path:url(#SVGID_00000116202908413266547720000010038598493364827816_);">
					<g>
						<defs>
							<rect id="SVGID_00000132795123482063049490000004289488180377363622_" x="112.84" y="183.03" width="20.66" height="20.66"/>
						</defs>
						<clipPath id="SVGID_00000102525733472984495010000009851463163544271027_">
							<use xlink:href="#SVGID_00000132795123482063049490000004289488180377363622_"  style="overflow:visible;"/>
						</clipPath>
						
							<ellipse transform="matrix(0.7071 -0.7071 0.7071 0.7071 -100.6517 143.7287)" style="clip-path:url(#SVGID_00000102525733472984495010000009851463163544271027_);fill:none;stroke:#2D2B29;stroke-width:7;stroke-miterlimit:10;" cx="123.17" cy="193.36" rx="6.83" ry="6.83"/>
					</g>
				</g>
				<g style="opacity:0.28;clip-path:url(#SVGID_00000116202908413266547720000010038598493364827816_);">
					<g>
						<defs>
							<rect id="SVGID_00000077313989746239378760000007324892518226198718_" x="462.56" y="181.43" width="20.66" height="20.66"/>
						</defs>
						<clipPath id="SVGID_00000132771680875326422250000003822553644140075695_">
							<use xlink:href="#SVGID_00000077313989746239378760000007324892518226198718_"  style="overflow:visible;"/>
						</clipPath>
						
							<ellipse transform="matrix(0.5257 -0.8507 0.8507 0.5257 61.1552 493.2097)" style="clip-path:url(#SVGID_00000132771680875326422250000003822553644140075695_);fill:none;stroke:#2D2B29;stroke-width:7;stroke-miterlimit:10;" cx="472.89" cy="191.76" rx="6.83" ry="6.83"/>
					</g>
				</g>
			</g>
		</g>
	</g>
</g>
</svg>
